<mxfile host="app.diagrams.net" modified="2023-07-17T04:09:37.727Z" agent="Mozilla/5.0 (X11; Linux x86_64) AppleWebKit/537.36 (KHTML, like Gecko) Chrome/110.0.0.0 Safari/537.36" etag="VT9i4MEt83hg6cgZkklx" version="21.6.2" type="github">
  <diagram name="Page-1" id="S8d39ZV7wlIzWOerNx4K">
    <mxGraphModel dx="1629" dy="443" grid="1" gridSize="10" guides="1" tooltips="1" connect="1" arrows="1" fold="1" page="1" pageScale="1" pageWidth="850" pageHeight="1100" math="0" shadow="0">
      <root>
        <mxCell id="0" />
        <mxCell id="1" parent="0" />
        <mxCell id="8tTXxtBI7gLIZj_l1eTl-18" value="" style="rounded=0;whiteSpace=wrap;html=1;fillColor=#d5e8d4;strokeColor=#82b366;" vertex="1" parent="1">
          <mxGeometry x="-10" y="270" width="730" height="480" as="geometry" />
        </mxCell>
        <mxCell id="8tTXxtBI7gLIZj_l1eTl-1" value="Emb&lt;br&gt;orange pi 5b" style="rounded=0;whiteSpace=wrap;html=1;" vertex="1" parent="1">
          <mxGeometry x="150" y="330" width="300" height="150" as="geometry" />
        </mxCell>
        <mxCell id="8tTXxtBI7gLIZj_l1eTl-2" value="7 inch LCD" style="rounded=0;whiteSpace=wrap;html=1;" vertex="1" parent="1">
          <mxGeometry x="510" y="370" width="120" height="60" as="geometry" />
        </mxCell>
        <mxCell id="8tTXxtBI7gLIZj_l1eTl-3" value="n Sensor" style="rounded=0;whiteSpace=wrap;html=1;" vertex="1" parent="1">
          <mxGeometry x="490" y="580" width="120" height="60" as="geometry" />
        </mxCell>
        <mxCell id="8tTXxtBI7gLIZj_l1eTl-4" value="" style="endArrow=none;html=1;rounded=0;" edge="1" parent="1">
          <mxGeometry width="50" height="50" relative="1" as="geometry">
            <mxPoint x="50" y="530" as="sourcePoint" />
            <mxPoint x="700" y="530" as="targetPoint" />
          </mxGeometry>
        </mxCell>
        <mxCell id="8tTXxtBI7gLIZj_l1eTl-5" value="" style="endArrow=none;html=1;rounded=0;" edge="1" parent="1">
          <mxGeometry width="50" height="50" relative="1" as="geometry">
            <mxPoint x="50" y="560" as="sourcePoint" />
            <mxPoint x="700" y="560" as="targetPoint" />
          </mxGeometry>
        </mxCell>
        <mxCell id="8tTXxtBI7gLIZj_l1eTl-6" value="CAN bus" style="text;html=1;strokeColor=none;fillColor=none;align=center;verticalAlign=middle;whiteSpace=wrap;rounded=0;" vertex="1" parent="1">
          <mxGeometry x="50" y="500" width="60" height="30" as="geometry" />
        </mxCell>
        <mxCell id="8tTXxtBI7gLIZj_l1eTl-8" value="MCU&amp;nbsp;engine control" style="rounded=0;whiteSpace=wrap;html=1;" vertex="1" parent="1">
          <mxGeometry x="200" y="580" width="230" height="160" as="geometry" />
        </mxCell>
        <mxCell id="8tTXxtBI7gLIZj_l1eTl-9" value="" style="endArrow=none;html=1;rounded=0;exitX=0.212;exitY=0.009;exitDx=0;exitDy=0;exitPerimeter=0;" edge="1" parent="1" source="8tTXxtBI7gLIZj_l1eTl-8">
          <mxGeometry width="50" height="50" relative="1" as="geometry">
            <mxPoint x="200" y="580" as="sourcePoint" />
            <mxPoint x="250" y="530" as="targetPoint" />
          </mxGeometry>
        </mxCell>
        <mxCell id="8tTXxtBI7gLIZj_l1eTl-10" value="" style="endArrow=none;html=1;rounded=0;" edge="1" parent="1">
          <mxGeometry width="50" height="50" relative="1" as="geometry">
            <mxPoint x="390" y="580" as="sourcePoint" />
            <mxPoint x="390" y="560" as="targetPoint" />
          </mxGeometry>
        </mxCell>
        <mxCell id="8tTXxtBI7gLIZj_l1eTl-13" value="" style="endArrow=none;html=1;rounded=0;exitX=0.212;exitY=0.009;exitDx=0;exitDy=0;exitPerimeter=0;" edge="1" parent="1">
          <mxGeometry width="50" height="50" relative="1" as="geometry">
            <mxPoint x="520" y="581" as="sourcePoint" />
            <mxPoint x="521" y="530" as="targetPoint" />
          </mxGeometry>
        </mxCell>
        <mxCell id="8tTXxtBI7gLIZj_l1eTl-14" value="" style="endArrow=none;html=1;rounded=0;" edge="1" parent="1">
          <mxGeometry width="50" height="50" relative="1" as="geometry">
            <mxPoint x="549.5" y="580" as="sourcePoint" />
            <mxPoint x="550.5" y="560" as="targetPoint" />
          </mxGeometry>
        </mxCell>
        <mxCell id="8tTXxtBI7gLIZj_l1eTl-15" value="" style="endArrow=none;html=1;rounded=0;entryX=0.25;entryY=1;entryDx=0;entryDy=0;" edge="1" parent="1" target="8tTXxtBI7gLIZj_l1eTl-1">
          <mxGeometry width="50" height="50" relative="1" as="geometry">
            <mxPoint x="225" y="530" as="sourcePoint" />
            <mxPoint x="320" y="610" as="targetPoint" />
          </mxGeometry>
        </mxCell>
        <mxCell id="8tTXxtBI7gLIZj_l1eTl-16" value="" style="endArrow=none;html=1;rounded=0;entryX=0.466;entryY=1.002;entryDx=0;entryDy=0;entryPerimeter=0;" edge="1" parent="1" target="8tTXxtBI7gLIZj_l1eTl-1">
          <mxGeometry width="50" height="50" relative="1" as="geometry">
            <mxPoint x="290" y="560" as="sourcePoint" />
            <mxPoint x="235" y="490" as="targetPoint" />
          </mxGeometry>
        </mxCell>
        <mxCell id="8tTXxtBI7gLIZj_l1eTl-17" value="" style="endArrow=none;html=1;rounded=0;exitX=0;exitY=0.5;exitDx=0;exitDy=0;" edge="1" parent="1" source="8tTXxtBI7gLIZj_l1eTl-2" target="8tTXxtBI7gLIZj_l1eTl-1">
          <mxGeometry width="50" height="50" relative="1" as="geometry">
            <mxPoint x="230" y="380" as="sourcePoint" />
            <mxPoint x="280" y="330" as="targetPoint" />
          </mxGeometry>
        </mxCell>
        <mxCell id="8tTXxtBI7gLIZj_l1eTl-19" value="So do chung" style="text;html=1;strokeColor=none;fillColor=none;align=center;verticalAlign=middle;whiteSpace=wrap;rounded=0;" vertex="1" parent="1">
          <mxGeometry x="325" y="270" width="60" height="30" as="geometry" />
        </mxCell>
        <mxCell id="8tTXxtBI7gLIZj_l1eTl-20" value="motor x4" style="rounded=0;whiteSpace=wrap;html=1;" vertex="1" parent="1">
          <mxGeometry x="-640" y="1130" width="120" height="60" as="geometry" />
        </mxCell>
      </root>
    </mxGraphModel>
  </diagram>
</mxfile>
